<svg version="1.1" xmlns="http://www.w3.org/2000/svg" style="display: block;" viewBox="-5 -5 820 900" width="820" height="900">
<defs>
	<linearGradient id="Gradient1" gradientUnits="userSpaceOnUse" x1="210.508" y1="105.269" x2="586.128" y2="792.383">
		<stop class="stop0" offset="0" stop-opacity="1" stop-color="rgb(228,24,73)"/>
		<stop class="stop1" offset="1" stop-opacity="1" stop-color="rgb(253,56,71)"/>
	</linearGradient>
</defs>
<path transform="translate(0,0)" fill="url(#Gradient1)" d="M 376.146 54.9048 C 394.494 52.0082 450.721 54.6372 467.605 60.9459 C 476.746 62.3192 486.198 63.3892 495.173 65.5997 C 515.789 70.6779 564.525 86.5296 576.81 103.019 C 582.859 111.139 585.986 121.422 584.272 131.496 C 582.52 141.792 577.15 152.234 568.387 158.191 C 559.717 164.085 547.095 166.763 536.819 164.74 C 522.557 161.932 508.608 154.389 494.635 150.13 C 458.749 139.194 420.04 135.901 382.699 137.271 L 382.087 137.409 C 377.052 138.507 371.716 138.434 366.594 139.112 C 353.633 140.827 340.292 142.838 327.621 146.09 C 253.423 165.138 184.133 214.131 142.088 278.203 C 136.733 286.364 128.204 304.126 123.434 309.932 C 111.073 334.935 104.381 360.26 95.8454 386.549 L 95.7672 387.361 C 94.7432 397.501 91.6381 407.384 90.5873 417.508 C 89.7119 425.942 89.9836 434.794 89.8723 443.272 C 89.4501 475.416 91.5586 497.422 98.6317 528.874 C 100.45 536.927 102.824 544.844 105.737 552.569 C 107.655 557.772 110.601 563.483 111.543 568.893 C 117.587 584.712 125.65 599.216 133.531 614.15 C 143.94 630.512 155.472 646.586 168.527 660.964 C 173.349 666.275 188.564 678.675 191.256 683.236 C 251.557 733.221 311.796 756.819 390.291 761.391 C 394.05 760.783 398.822 761.571 402.708 761.517 C 415.486 761.341 428.664 761.316 441.345 759.599 C 485.651 753.598 530.394 737.673 568.043 713.473 C 575.81 708.481 583.428 703.049 590.788 697.474 C 594.071 694.988 596.979 692.019 600.533 689.912 L 601.084 689.592 C 616.553 677.289 631.234 662.355 643.509 646.888 C 644.812 642.001 654.107 632.73 657.41 628.311 C 676.308 596.768 687.36 578.365 698.997 542.562 C 702.091 535.055 703.233 526.973 705.666 519.255 C 705.725 507.623 709.936 495.566 711.264 483.918 C 713.169 467.214 712.726 450.024 712.977 433.224 L 712.92 431.802 C 711.531 426.337 711.557 419.947 710.818 414.282 C 709.582 404.813 707.787 395.546 705.774 386.213 C 700.989 351.447 677.646 305.278 659.181 275.386 C 653.455 266.116 644.933 257.388 640.642 247.468 C 637.876 241.072 637.34 233.314 637.61 226.417 C 637.996 216.532 640.733 207.138 648.335 200.309 C 656.928 192.59 671.867 189.783 683.178 190.458 C 692.932 191.041 701.105 194.806 707.559 202.061 L 714.51 211.387 C 737.619 243.545 757.234 275.572 771.319 312.816 C 774.839 322.124 777.095 331.789 780.403 341.131 C 797.083 399.915 800.154 457.173 790.602 517.54 C 788.234 532.501 785.885 549.101 779.732 563.007 C 768.839 611.398 725.068 690.424 687.592 724.592 C 658.332 752.202 618.553 787.704 581.018 802.842 C 562.995 813.263 542.695 820.874 522.909 827.195 C 447.846 851.214 367.429 852.958 291.395 832.215 C 275.181 827.889 259.267 822.031 243.62 816.005 C 220.843 805.593 199.356 794.344 178.44 780.521 C 91.1047 722.799 33.0984 630.627 12.3333 528.81 C 11.7547 526.892 11.3367 524.926 10.9201 522.968 C 6.97496 504.429 5.54503 484.947 4.99442 466.026 C 2.49649 384.006 25.2737 303.201 70.2396 234.56 C 110.525 174.202 165.964 125.49 231.002 93.3037 C 244.395 86.5531 259.95 78.4536 274.682 75.364 C 288.042 70.2143 301.587 66.3748 315.565 63.2966 C 322.289 61.7913 329.104 59.9829 335.973 59.355 C 347.591 55.8138 364.002 55.0317 376.146 54.9048 z"/>
<path transform="translate(0,0)" fill="rgb(251,23,37)" d="M 705.774 386.213 C 700.989 351.447 677.646 305.278 659.181 275.386 C 653.455 266.116 644.933 257.388 640.642 247.468 C 637.876 241.072 637.34 233.314 637.61 226.417 C 637.996 216.532 640.733 207.138 648.335 200.309 C 656.928 192.59 671.867 189.783 683.178 190.458 C 692.932 191.041 701.105 194.806 707.559 202.061 L 714.51 211.387 C 737.619 243.545 757.234 275.572 771.319 312.816 C 774.839 322.124 777.095 331.789 780.403 341.131 C 797.083 399.915 800.154 457.173 790.602 517.54 C 788.234 532.501 785.885 549.101 779.732 563.007 C 768.839 611.398 725.068 690.424 687.592 724.592 C 658.332 752.202 618.553 787.704 581.018 802.842 C 562.995 813.263 542.695 820.874 522.909 827.195 C 447.846 851.214 367.429 852.958 291.395 832.215 C 275.181 827.889 259.267 822.031 243.62 816.005 C 220.843 805.593 199.356 794.344 178.44 780.521 C 91.1047 722.799 33.0984 630.627 12.3333 528.81 L 13.647 527.729 C 14.402 529.837 15.0932 534.929 16.7981 535.785 C 17.5141 533.357 15.8765 529.94 15.0764 527.549 L 15.9 527.418 C 18.6345 534.095 20.0034 541.498 21.9989 548.453 C 26.9283 565.633 31.6172 583.045 38.2114 599.677 C 64.9422 667.101 116.207 732.766 177.003 772.666 C 189.614 780.943 202.698 789.795 216.058 796.759 C 224.712 801.271 234.424 804.33 242.789 809.289 C 250.667 812.637 258.854 815.525 266.905 818.433 C 349.42 848.238 444.177 848.559 527.411 820.818 C 545.994 814.624 563.998 805.904 581.717 797.604 C 603.127 783.645 625.24 771.395 645.477 755.591 C 658.557 745.377 670.301 733.195 682.386 721.844 C 728.545 674.13 761.29 615.077 777.312 550.652 C 797.154 486.362 792.669 418.058 778.475 353.134 C 767.793 317.922 754.532 281.526 735.293 249.969 C 728.138 238.235 719.461 227.302 711.837 215.843 C 708.68 211.913 705.464 208.03 702.19 204.197 C 693.73 197.534 684.075 194.889 673.357 196.197 C 665.575 197.147 657.47 200.047 650.684 203.95 C 644.436 214.061 640.809 227.514 643.576 239.394 C 646.334 251.238 671.063 283.842 678.471 297.084 C 693.576 324.081 703.652 353.558 710.477 383.619 C 713.023 393.568 715.018 403.747 715.532 414.027 L 717.071 423.777 C 720.72 442.779 716.413 511.912 708.485 528.149 C 706.525 537.703 703.771 546.858 700.269 555.961 C 697.102 566.785 686.883 593.093 679.438 600.774 C 684.103 591.158 688.576 581.632 692.348 571.622 C 685.985 582.691 667.071 624.486 657.41 628.311 C 676.308 596.768 687.36 578.365 698.997 542.562 C 702.091 535.055 703.233 526.973 705.666 519.255 C 705.725 507.623 709.936 495.566 711.264 483.918 C 713.169 467.214 712.726 450.024 712.977 433.224 L 712.92 431.802 C 711.531 426.337 711.557 419.947 710.818 414.282 C 709.582 404.813 707.787 395.546 705.774 386.213 z"/>
<path transform="translate(0,0)" fill="rgb(251,23,37)" d="M 89.8436 390.816 C 92.8902 370.901 99.7863 351.425 106.984 332.654 C 110.049 324.66 121.333 295.736 127.989 292.773 L 129.293 294.957 C 125.28 299.606 124.047 303.884 123.434 309.932 C 111.073 334.935 104.381 360.26 95.8454 386.549 L 95.7672 387.361 C 94.7432 397.501 91.6381 407.384 90.5873 417.508 C 89.7119 425.942 89.9836 434.794 89.8723 443.272 C 89.4501 475.416 91.5586 497.422 98.6317 528.874 C 100.45 536.927 102.824 544.844 105.737 552.569 C 107.655 557.772 110.601 563.483 111.543 568.893 C 117.587 584.712 125.65 599.216 133.531 614.15 C 129.444 612.078 127.432 605.723 123.651 602.599 C 123.042 605.188 129.828 614.104 130.748 617.464 C 119.822 604.665 113.472 587.447 107.114 572.034 C 106.864 571.666 106.835 571.641 106.596 571.18 C 84.8375 529.334 79.3733 455.273 86.371 409.569 C 87.2906 403.563 87.7619 396.511 89.8436 390.816 z"/>
<path transform="translate(0,0)" fill="rgb(251,23,37)" d="M 467.605 60.9459 C 476.746 62.3192 486.198 63.3892 495.173 65.5997 C 515.789 70.6779 564.525 86.5296 576.81 103.019 C 582.859 111.139 585.986 121.422 584.272 131.496 C 582.52 141.792 577.15 152.234 568.387 158.191 C 559.717 164.085 547.095 166.763 536.819 164.74 C 522.557 161.932 508.608 154.389 494.635 150.13 C 458.749 139.194 420.04 135.901 382.699 137.271 C 401.38 126.952 478.879 143.57 501.374 150.331 C 513.555 153.993 525.503 160.481 537.856 163.083 C 547.196 165.051 558.991 161.578 566.89 156.404 C 575.585 150.709 579.423 143.326 581.522 133.4 C 583.575 123.696 581.557 112.369 575.994 104.046 C 573.49 100.3 570.487 98.0368 566.074 97.1358 L 565.314 97.7949 C 569.437 99.0598 571.952 101.348 574.235 104.996 C 580.205 114.537 580.949 124.563 578.348 135.333 C 576.615 142.508 573.838 150.994 567.234 155.03 L 566.34 154.256 C 566.994 151.676 568.333 150.62 570.467 149.029 C 570.722 148.838 570.982 148.652 571.227 148.448 C 575.662 144.773 577.981 132.345 578.447 126.705 C 579.116 118.618 577.833 111.784 572.383 105.569 C 558.678 89.9432 495.022 68.0075 474.068 66.5128 C 471.389 64.8806 469.466 63.4925 467.605 60.9459 z"/>
<path transform="translate(0,0)" fill="rgb(251,23,37)" d="M 191.256 683.236 C 251.557 733.221 311.796 756.819 390.291 761.391 C 384.048 764.932 370.279 761.634 362.687 762.291 C 361.888 762.36 362.274 762.212 361.617 762.991 C 367.962 764.537 376.21 766.043 382.625 764.548 C 382.899 764.484 383.171 764.412 383.444 764.344 L 384.048 765.039 C 383.31 765.409 382.77 765.691 381.943 765.815 C 373.428 767.101 362.837 765.155 354.356 763.843 C 317.586 758.155 264.109 743.033 234.667 719.807 L 241.003 722.723 C 233.991 716.274 224.813 711.666 216.97 706.228 C 211.114 702.167 192.413 689.79 191.256 683.236 z"/>
<path transform="translate(0,0)" fill="rgb(241,25,50)" d="M 376.146 54.9048 C 394.494 52.0082 450.721 54.6372 467.605 60.9459 C 469.466 63.4925 471.389 64.8806 474.068 66.5128 C 462.177 64.3163 450.083 61.7173 438.022 60.8079 C 415.361 59.0993 392.468 60.3754 369.865 58.5625 C 373.126 56.6957 426.662 57.683 431.679 59.027 C 432.503 59.2478 433.394 58.6279 434.177 58.2957 C 425.546 51.9762 387.515 60.0202 376.146 54.9048 z"/>
<path transform="translate(0,0)" fill="rgb(241,25,50)" d="M 315.565 63.2966 C 322.289 61.7913 329.104 59.9829 335.973 59.355 L 335.213 61.0976 C 331.824 61.9908 328.07 62.6586 325.211 64.7655 L 330.836 63.1888 C 323.47 66.8573 315.681 68.5767 307.736 70.4894 C 295.905 73.9845 287.012 75.9701 274.682 75.364 C 288.042 70.2143 301.587 66.3748 315.565 63.2966 z"/>
<path transform="translate(0,0)" fill="rgb(241,25,50)" d="M 601.084 689.592 C 616.553 677.289 631.234 662.355 643.509 646.888 C 642.944 649.312 642.433 651.632 641.348 653.888 C 642.715 652.59 643.982 651.396 645.593 650.391 C 643.168 657.971 615.843 685.786 608.409 689.944 C 607.817 690.275 607.352 690.377 606.696 690.521 L 610.446 685.035 C 607.305 687.498 605.104 689.098 601.084 689.592 z"/>
<path transform="translate(0,0)" fill="rgb(250,250,249)" d="M 1610.11 53.6333 C 1610.18 47.1911 1610.04 40.7484 1609.67 34.3162 C 1612.92 32.1096 1622.54 32.521 1626.83 32.421 C 1701.22 30.6842 1776.03 32.2737 1850.46 32.2788 L 1942.68 32.293 C 1961.78 32.2982 1981.13 31.6609 2000.17 33.0634 C 2002.29 59.7016 2000.77 87.3161 2000.5 114.078 C 2000.18 145.397 2000.71 176.761 2000.65 208.089 L 2000.53 275.627 C 2000.59 287.904 2001.86 301.31 2000.39 313.448 C 1999.08 314.796 1998.19 315.254 1996.36 315.657 C 1983.81 313.542 1969.62 314.801 1956.84 314.86 L 1885.1 315.187 C 1843.56 314.96 1802.02 314.957 1760.49 315.178 C 1737.73 315.239 1714.92 314.515 1692.21 316.146 C 1682.97 316.356 1673.71 316.127 1664.47 316.03 C 1647.62 319.103 1627.49 316.171 1610.18 316.817 C 1609.42 279.846 1609.91 242.781 1609.91 205.802 L 1610.11 53.6333 z M 1931 253.687 C 1934.04 247.761 1931.57 214.273 1932.58 204.615 C 1914.48 203.829 1896.3 204.085 1878.18 204.045 C 1864.82 204.016 1851.24 203.501 1837.9 204.271 C 1837.75 219.838 1836.4 236.461 1838.1 251.9 C 1840.18 253.488 1842.92 253.076 1845.51 253.213 L 1901.24 253.025 C 1910.95 253.041 1921.4 252.368 1931 253.687 z M 1770.88 142.098 C 1771.08 126.574 1770.3 110.547 1772.02 95.1281 C 1753 96.0183 1693.67 98.7431 1678.07 94.8681 C 1678.09 111.235 1678.34 127.63 1678.14 143.994 C 1708.74 143.936 1739.89 145.247 1770.43 143.809 L 1770.88 142.098 z M 1934.72 92.3052 C 1911.33 88.9068 1886.2 90.9728 1862.62 91.3784 C 1853.2 91.5404 1843.25 90.4708 1833.95 92.0614 C 1833.84 102.176 1831.75 140.452 1835.62 146.951 C 1843.68 147.053 1854.75 146.124 1862.56 144.157 C 1885.64 143.39 1908.85 144.079 1931.95 143.907 C 1931.95 138.803 1932.1 133.689 1932.2 128.585 C 1935.08 117.315 1933.3 104.041 1934.72 92.3052 z M 1677.37 253.007 C 1708.52 253.373 1739.72 253.078 1770.88 253.105 L 1771.3 225.345 C 1771.16 218.243 1771.08 211.133 1770.85 204.034 C 1759.02 205.292 1746.28 204.266 1734.35 204.189 C 1715.7 204.069 1697.03 204.4 1678.38 204.082 C 1678.04 215.578 1680.36 244.069 1677.37 253.007 z"/>
<path transform="translate(0,0)" fill="rgb(180,180,184)" d="M 1610.11 53.6333 C 1610.18 47.1911 1610.04 40.7484 1609.67 34.3162 C 1612.92 32.1096 1622.54 32.521 1626.83 32.421 C 1701.22 30.6842 1776.03 32.2737 1850.46 32.2788 L 1942.68 32.293 C 1961.78 32.2982 1981.13 31.6609 2000.17 33.0634 C 2002.29 59.7016 2000.77 87.3161 2000.5 114.078 C 2000.18 145.397 2000.71 176.761 2000.65 208.089 L 2000.53 275.627 C 2000.59 287.904 2001.86 301.31 2000.39 313.448 C 1999.08 314.796 1998.19 315.254 1996.36 315.657 C 1993.64 303.906 1995.65 250.184 1995.69 234.585 C 1995.92 168.649 1995.78 102.714 1995.29 36.7799 C 1925.27 37.7276 1855.17 36.83 1785.15 36.817 C 1728.68 36.8065 1672.04 37.9569 1615.6 36.5773 C 1614.95 43.6695 1612.3 47.175 1610.11 53.6333 z"/>
<path transform="translate(0,0)" fill="rgb(180,180,184)" d="M 1664.47 316.03 C 1666.5 314.805 1667.46 314.503 1668.45 312.273 L 1665.67 311.474 C 1671.97 311.086 1686.89 308.672 1692.15 311.634 L 1690.91 313.897 L 1692.21 316.146 C 1682.97 316.356 1673.71 316.127 1664.47 316.03 z"/>
<path transform="translate(0,0)" fill="rgb(180,180,184)" d="M 1845.51 253.213 C 1844.99 254.36 1844.2 255.349 1843.47 256.378 C 1840.74 257.034 1839.14 257.385 1836.42 256.348 C 1834.75 254.769 1834.05 253.306 1833.8 251.037 C 1833.38 247.235 1834.13 243.089 1834.11 239.233 C 1834.04 230.355 1831.04 208.119 1837.09 201.151 C 1839.3 198.598 1842.79 197.701 1846.04 197.531 C 1859.1 196.843 1873.03 198.612 1886.2 198.769 C 1900.33 198.938 1915.64 197.011 1929.62 198.925 C 1932.66 199.342 1933.85 199.862 1936.11 201.931 L 1934.68 204.411 L 1932.58 204.615 C 1914.48 203.829 1896.3 204.085 1878.18 204.045 C 1864.82 204.016 1851.24 203.501 1837.9 204.271 C 1837.75 219.838 1836.4 236.461 1838.1 251.9 C 1840.18 253.488 1842.92 253.076 1845.51 253.213 z"/>
<path transform="translate(0,0)" fill="rgb(210,210,214)" fill-opacity="0.988235" d="M 1833.95 92.0614 C 1843.25 90.4708 1853.2 91.5404 1862.62 91.3784 C 1886.2 90.9728 1911.33 88.9068 1934.72 92.3052 C 1933.3 104.041 1935.08 117.315 1932.2 128.585 C 1932.13 117.541 1931.83 106.443 1932.31 95.4083 C 1900.97 94.8136 1869.11 97.621 1837.92 95.6443 C 1837.75 111.765 1837.75 127.888 1837.91 144.009 C 1846.11 144.051 1854.36 143.908 1862.56 144.157 C 1854.75 146.124 1843.68 147.053 1835.62 146.951 C 1831.75 140.452 1833.84 102.176 1833.95 92.0614 z"/>
<path transform="translate(0,0)" fill="rgb(180,180,184)" d="M 1677.37 253.007 C 1676.01 249.029 1675.36 206.342 1676.51 201.588 C 1676.74 200.659 1676.51 200.948 1677.41 200.433 C 1683.58 196.905 1762.47 197.876 1771.89 200.114 C 1775.4 203.794 1775.91 210.315 1776.2 215.219 C 1776.32 217.185 1776.54 220.848 1775.2 222.344 C 1774.64 216.979 1774.18 211.604 1773.84 206.222 C 1770.93 210.228 1774.69 219.912 1771.3 225.345 C 1771.16 218.243 1771.08 211.133 1770.85 204.034 C 1759.02 205.292 1746.28 204.266 1734.35 204.189 C 1715.7 204.069 1697.03 204.4 1678.38 204.082 C 1678.04 215.578 1680.36 244.069 1677.37 253.007 z"/>
<path transform="translate(0,0)" fill="rgb(210,210,214)" d="M 1936.11 201.931 C 1938.65 208.234 1937.95 246.218 1935.33 252.21 C 1935.07 252.803 1934.76 253.362 1934.43 253.919 L 1932.49 254.612 L 1931 253.687 C 1934.04 247.761 1931.57 214.273 1932.58 204.615 L 1934.68 204.411 L 1936.11 201.931 z"/>
<path transform="translate(0,0)" fill="rgb(250,250,249)" d="M 1006.6 45.4499 C 1031.54 43.1833 1056.7 37.1747 1081.15 31.9075 L 1166.87 13.5267 C 1184.98 9.6218 1204.58 3.5952 1223.1 2.70382 C 1227.92 13.2229 1243.3 49.5666 1243.48 59.1636 C 1241.48 63.1086 1237.17 64.3833 1233.13 65.7144 C 1213.13 72.2883 1183.43 75.7795 1165.67 83.6946 C 1165.77 96.0882 1166.22 108.972 1165.32 121.308 C 1165.5 131.861 1165.51 142.417 1165.35 152.971 C 1185.9 153.481 1206.51 152.376 1227.03 153.395 L 1229.57 154.32 C 1231.82 159.785 1230.47 209.232 1228.99 217.22 C 1221.36 221.118 1176.66 218.927 1165.12 218.805 L 1165.69 233.003 C 1186.68 256.95 1208.07 280.214 1228.61 304.623 C 1233.71 310.689 1239.48 316.447 1244.29 322.719 C 1236.36 331.171 1208.23 368.286 1200.38 369.973 C 1196.71 368.94 1195.46 367.551 1193.56 364.221 C 1185.87 350.734 1178.82 336.778 1171.16 323.225 C 1169.29 319.923 1167.83 315.741 1165.57 312.761 L 1161.87 313.52 L 1159.86 313.826 C 1157.91 317.848 1159.13 490.857 1159.14 509.002 C 1145.76 510.751 1115.26 511.795 1102.82 509.487 C 1101.45 507.065 1101.81 504.262 1101.87 501.573 C 1101.28 499.136 1100.77 496.759 1100.43 494.27 L 1098.89 498.558 L 1098.39 503.214 L 1097.35 503.129 L 1095.92 499.799 C 1095.86 471.761 1095.12 443.548 1096.09 415.536 C 1095.38 399.262 1096.02 382.718 1096.5 366.436 C 1095.43 354.843 1098.31 342.422 1096.3 331.133 C 1094.22 332.644 1093.54 335.68 1092.65 338.015 C 1086.5 355.983 1076.78 383.433 1064.1 397.913 L 1060.97 393.867 C 1057.86 398.825 1054.89 404.149 1051.36 408.806 L 1055.69 410.177 C 1050.14 417.984 1039.76 431.194 1031.55 435.802 C 1030.6 436.331 1029.46 435.666 1028.45 435.368 C 1025.23 430.779 1025.33 423.663 1023.19 418.389 C 1017.87 405.294 1004.74 390.662 1003.89 376.48 C 1003.53 370.47 1008.7 365.943 1012.39 361.839 C 1015.56 356.263 1020.27 350.809 1023.91 345.415 C 1031.48 334.187 1038.5 322.905 1045.51 311.328 C 1052.16 296.668 1060.7 282.29 1068.14 267.958 C 1073.98 251.756 1082.05 236.285 1087.94 219.978 C 1064.75 219.246 1041.57 219.542 1018.39 218.85 C 1018.39 197.742 1020.26 175.702 1016.45 154.876 C 1036.44 153.75 1080.04 150.789 1098.35 154.211 C 1096.51 136.91 1101.28 111.579 1097.41 95.7053 L 1095.49 94.8062 L 1094.39 97.2745 C 1080.68 100.429 1036.63 107.213 1023.9 106.893 C 1019.48 88.4613 1013.94 62.5029 1006.6 45.4499 z"/>
<path transform="translate(0,0)" fill="rgb(180,180,184)" d="M 1006.6 45.4499 C 1031.54 43.1833 1056.7 37.1747 1081.15 31.9075 L 1166.87 13.5267 C 1184.98 9.6218 1204.58 3.5952 1223.1 2.70382 C 1227.92 13.2229 1243.3 49.5666 1243.48 59.1636 C 1241.48 63.1086 1237.17 64.3833 1233.13 65.7144 C 1213.13 72.2883 1183.43 75.7795 1165.67 83.6946 C 1165.77 96.0882 1166.22 108.972 1165.32 121.308 C 1165.17 108.312 1161.23 93.7619 1162.46 81.3738 C 1167.31 72.6395 1224.87 64.7892 1237.57 59.0255 L 1238.01 58.8212 C 1234.92 42.6656 1226.92 21.5456 1218.09 7.64251 C 1183.03 16.4377 1147.04 22.5421 1111.67 29.9825 C 1081.42 36.346 1044.19 46.3595 1014.09 48.6933 C 1017.42 66.1257 1021.73 84.9866 1027.72 101.699 C 1037.27 99.5806 1047.53 99.321 1057.25 97.9256 C 1067.59 96.4403 1078.76 93.28 1089.14 93.0457 C 1091.63 92.9897 1093.37 93.5455 1095.49 94.8062 L 1094.39 97.2745 C 1080.68 100.429 1036.63 107.213 1023.9 106.893 C 1019.48 88.4613 1013.94 62.5029 1006.6 45.4499 z"/>
<path transform="translate(0,0)" fill="rgb(180,180,184)" d="M 1227.03 153.395 L 1229.57 154.32 C 1231.82 159.785 1230.47 209.232 1228.99 217.22 C 1221.36 221.118 1176.66 218.927 1165.12 218.805 L 1165.69 233.003 C 1186.68 256.95 1208.07 280.214 1228.61 304.623 C 1233.71 310.689 1239.48 316.447 1244.29 322.719 C 1236.36 331.171 1208.23 368.286 1200.38 369.973 C 1196.71 368.94 1195.46 367.551 1193.56 364.221 C 1185.87 350.734 1178.82 336.778 1171.16 323.225 C 1169.29 319.923 1167.83 315.741 1165.57 312.761 L 1161.87 313.52 C 1162.79 312.227 1163.93 311.067 1164.99 309.887 L 1166.66 309.967 C 1176.31 318.59 1194.1 354.305 1200.74 367.374 C 1211.15 351.42 1225.19 336.886 1237.77 322.592 C 1232.06 314.885 1224.74 307.856 1218.47 300.554 C 1206.08 286.135 1194.14 271.427 1181.47 257.237 C 1175.55 250.609 1166.98 243.796 1162.42 236.366 C 1160.81 233.731 1160.19 229.324 1159.97 226.307 C 1159.71 222.718 1159.8 217.944 1162.42 215.168 C 1165.18 212.253 1216.51 213.835 1224.21 213.874 C 1224.9 199.546 1221.88 165.12 1227.03 153.395 z"/>
<path transform="translate(0,0)" fill="rgb(180,180,184)" d="M 1016.45 154.876 C 1036.44 153.75 1080.04 150.789 1098.35 154.211 L 1098.86 157.509 C 1093.04 162.702 1033.68 159.729 1021.95 160.202 C 1022.35 178.003 1023.23 196.081 1021.96 213.849 C 1035.1 214.169 1048.2 215.267 1061.34 215.599 C 1068.9 215.79 1077.33 214.713 1084.77 215.904 C 1086.92 216.25 1088.38 217.037 1090.04 218.449 C 1091.77 221.73 1091.02 224.48 1089.98 227.878 C 1085.85 241.274 1077.5 253.557 1073.43 266.75 L 1068.14 267.958 C 1073.98 251.756 1082.05 236.285 1087.94 219.978 C 1064.75 219.246 1041.57 219.542 1018.39 218.85 C 1018.39 197.742 1020.26 175.702 1016.45 154.876 z"/>
<path transform="translate(0,0)" fill="rgb(180,180,184)" d="M 1096.3 331.133 L 1098.37 332.127 L 1100.45 329.983 C 1102.99 334.17 1102.09 344.035 1102.13 349.091 C 1101.85 376.406 1101.72 403.722 1101.74 431.038 C 1101.9 454.468 1102.81 478.159 1101.87 501.573 C 1101.28 499.136 1100.77 496.759 1100.43 494.27 L 1098.89 498.558 L 1098.39 503.214 L 1097.35 503.129 L 1095.92 499.799 C 1095.86 471.761 1095.12 443.548 1096.09 415.536 C 1095.38 399.262 1096.02 382.718 1096.5 366.436 C 1095.43 354.843 1098.31 342.422 1096.3 331.133 z"/>
<path transform="translate(0,0)" fill="rgb(250,250,249)" d="M 1098.09 397.344 C 1103.18 430.466 1098.83 465.213 1098.89 498.558 L 1098.39 503.214 L 1097.35 503.129 L 1095.92 499.799 C 1095.86 471.761 1095.12 443.548 1096.09 415.536 C 1096.79 409.475 1097.46 403.411 1098.09 397.344 z"/>
<path transform="translate(0,0)" fill="rgb(210,210,214)" d="M 1096.3 331.133 L 1098.37 332.127 L 1100.45 329.983 C 1102.99 334.17 1102.09 344.035 1102.13 349.091 C 1101.25 350.375 1099.94 351.819 1099.24 353.183 C 1097.54 356.483 1099.89 371.953 1097.7 373.359 C 1097.32 371.052 1096.98 368.724 1096.5 366.436 C 1095.43 354.843 1098.31 342.422 1096.3 331.133 z"/>
<path transform="translate(0,0)" fill="rgb(180,180,184)" d="M 1055.69 410.177 C 1050.14 417.984 1039.76 431.194 1031.55 435.802 C 1030.6 436.331 1029.46 435.666 1028.45 435.368 C 1025.23 430.779 1025.33 423.663 1023.19 418.389 C 1017.87 405.294 1004.74 390.662 1003.89 376.48 C 1003.53 370.47 1008.7 365.943 1012.39 361.839 C 1012 367.193 1010.01 370.558 1007.25 375.007 C 1015.56 392.717 1024.97 410.345 1031.75 428.703 C 1038.97 422.747 1045.27 415.897 1051.36 408.806 L 1055.69 410.177 z"/>
<path transform="translate(0,0)" fill="rgb(180,180,184)" d="M 1060.97 393.867 C 1069.61 382.495 1075.33 368.04 1080.97 354.989 C 1082.91 350.497 1084.77 344.948 1087.38 340.887 C 1088.86 338.592 1090.22 338.608 1092.65 338.015 C 1086.5 355.983 1076.78 383.433 1064.1 397.913 L 1060.97 393.867 z"/>
<path transform="translate(0,0)" fill="rgb(210,210,214)" d="M 1045.51 311.328 C 1052.16 296.668 1060.7 282.29 1068.14 267.958 L 1073.43 266.75 C 1068.67 277.741 1064.11 289.546 1056.19 298.684 L 1056.92 297.011 C 1053.86 301.211 1050 309.144 1045.51 311.328 z"/>
<path transform="translate(0,0)" fill="rgb(250,250,249)" d="M 1024.1 600.841 C 1047.97 600.009 1071.69 601.581 1095.51 600.771 C 1099.64 604.33 1170.28 752.401 1171.95 760.294 C 1176.61 751.322 1180.84 742.243 1184.93 732.998 C 1191.38 719.083 1197.76 705.128 1205.41 691.816 C 1205.98 686.662 1243.62 609.471 1248.51 603.039 C 1259.03 598.373 1283.35 601.001 1295.44 601.178 C 1301.24 601.05 1315.75 599.339 1320.16 602.87 C 1319.94 639.745 1319.9 676.621 1320.06 713.496 C 1320.06 731.326 1320.78 749.534 1319.91 767.322 C 1319.01 759.086 1318.34 750.784 1316.68 742.659 C 1315.21 769.119 1316.01 795.856 1316.08 822.353 C 1316.12 834.41 1317.27 848.465 1315.16 860.225 L 1314.9 871.753 C 1301.12 871.207 1287.28 871.195 1273.48 870.972 C 1271.7 825.968 1273.02 780.543 1273.06 735.492 C 1273.08 716.382 1273.89 696.863 1272.4 677.824 L 1267.99 676.603 L 1267.63 675.295 L 1266.67 675.836 C 1264.44 681.942 1261.74 687.639 1258.79 693.429 C 1245.24 722.308 1231.21 750.965 1216.72 779.388 C 1206.98 798.855 1196.52 817.923 1188.53 838.222 C 1177.64 838.068 1166.43 838.44 1155.58 837.607 C 1145.89 810.774 1132.07 786.333 1119.58 760.765 C 1111.04 746.688 1105.01 731.328 1097.53 716.692 C 1089.74 705.324 1083.36 685.16 1075.1 671.059 C 1074.43 686.924 1075.9 703.244 1075.93 719.184 C 1076.03 771.654 1076.95 824.35 1075.59 876.794 C 1062.17 877.872 1037.93 878.989 1025.08 876.684 C 1021.51 865.099 1023.86 801.739 1023.86 784.074 C 1023.85 723.089 1022.53 661.788 1024.1 600.841 z"/>
<path transform="translate(0,0)" fill="rgb(180,180,184)" d="M 1257.38 685.941 C 1258.15 683.808 1258.89 681.379 1260.01 679.406 C 1261.53 676.728 1263.97 676.529 1266.67 675.836 C 1264.44 681.942 1261.74 687.639 1258.79 693.429 C 1245.24 722.308 1231.21 750.965 1216.72 779.388 C 1206.98 798.855 1196.52 817.923 1188.53 838.222 C 1177.64 838.068 1166.43 838.44 1155.58 837.607 C 1145.89 810.774 1132.07 786.333 1119.58 760.765 L 1124.51 760.253 C 1131.96 774.613 1139.34 789.102 1146.23 803.735 C 1150.72 813.264 1154.39 823.749 1160.18 832.525 C 1168.3 832.727 1176.37 832.42 1184.47 832.109 C 1191.31 822.822 1199.47 801.76 1204.97 790.568 C 1222.11 755.658 1239.16 720.284 1257.38 685.941 z"/>
<path transform="translate(0,0)" fill="rgb(180,180,184)" d="M 1095.51 600.771 C 1099.64 604.33 1170.28 752.401 1171.95 760.294 L 1169.41 762.968 C 1164.11 755.23 1160.62 746.15 1156.61 737.705 L 1139.57 702.304 C 1125.34 672.546 1108.39 642.438 1097.1 611.494 C 1095.78 607.861 1094.88 604.678 1095.51 600.771 z"/>
<path transform="translate(0,0)" fill="rgb(210,210,214)" d="M 1295.44 601.178 C 1301.24 601.05 1315.75 599.339 1320.16 602.87 C 1319.94 639.745 1319.9 676.621 1320.06 713.496 C 1320.06 731.326 1320.78 749.534 1319.91 767.322 C 1319.01 759.086 1318.34 750.784 1316.68 742.659 C 1315.21 769.119 1316.01 795.856 1316.08 822.353 C 1316.12 834.41 1317.27 848.465 1315.16 860.225 C 1313.6 841.169 1315.01 820.666 1315 801.472 C 1314.97 750.692 1316.1 699.905 1315.32 649.126 C 1315.09 633.754 1316.66 617.607 1314.96 602.396 C 1308.48 602.278 1301.81 602.444 1295.44 601.178 z"/>
<path transform="translate(0,0)" fill="rgb(210,210,214)" d="M 1184.93 732.998 C 1191.38 719.083 1197.76 705.128 1205.41 691.816 C 1205.06 700.163 1194.49 725.473 1189.98 733.031 C 1186.31 741.754 1181.62 758.633 1173.98 764.009 L 1171.41 764.502 L 1169.41 762.968 L 1171.95 760.294 C 1176.61 751.322 1180.84 742.243 1184.93 732.998 z"/>
<path transform="translate(0,0)" fill="rgb(210,210,214)" d="M 1100.83 713.389 C 1109.2 728.732 1116.18 744.852 1124.51 760.253 L 1119.58 760.765 C 1111.04 746.688 1105.01 731.328 1097.53 716.692 L 1100.83 713.389 z"/>
<path transform="translate(0,0)" fill="rgb(180,180,184)" d="M 1075.1 671.059 L 1075.12 668.605 L 1076.38 667.77 C 1085.98 673.264 1094.56 702.882 1100.83 713.389 L 1097.53 716.692 C 1089.74 705.324 1083.36 685.16 1075.1 671.059 z"/>
<path transform="translate(0,0)" fill="rgb(250,250,249)" d="M 1862.25 670.478 C 1880.93 667.773 1896.95 668.992 1915.11 674.171 C 1939.98 682.89 1958.96 697.763 1970.61 721.844 C 1974.85 730.544 1977.65 739.876 1978.9 749.474 C 1979.65 762.044 1982.27 780.333 1977.85 792.266 C 1965.44 793.497 1952.36 792.896 1939.89 792.928 L 1868.62 792.706 C 1859.85 792.641 1842.58 790.411 1835.05 793.02 C 1835.06 794.206 1835.12 795.382 1835.26 796.561 C 1836.75 808.376 1843.6 819.298 1852.87 826.583 C 1870.62 840.532 1902.35 844.521 1923.16 835.886 C 1932.33 832.08 1942.21 824.064 1952.03 822.909 C 1961.27 830.284 1969.55 841.111 1977.55 849.937 C 1977.46 850.379 1977.35 850.82 1977.23 851.254 C 1975.77 856.368 1968.02 860.401 1963.63 862.842 C 1930.23 881.449 1894.48 889.16 1856.87 878.407 C 1827.99 870.151 1807.38 854.607 1792.81 828.361 C 1777.42 800.661 1777.72 765.932 1786.24 736.177 C 1789.08 728.564 1792.41 721.458 1796.62 714.498 C 1812 689.073 1834.13 677.333 1862.25 670.478 z M 1832.77 750.534 L 1832.6 753.744 C 1837.03 756.175 1919.83 755.14 1931.45 754.943 L 1932.41 754.175 C 1932.45 753.78 1932.48 753.383 1932.48 752.986 C 1932.63 742.832 1926.78 730.587 1919.78 723.426 C 1909.85 713.275 1898.11 709.974 1884.23 709.793 C 1869.9 710.091 1857.17 712.692 1846.88 723.466 C 1839.09 731.624 1837.4 740.852 1832.77 750.534 z"/>
<path transform="translate(0,0)" fill="rgb(180,180,184)" d="M 1977.85 792.266 C 1965.44 793.497 1952.36 792.896 1939.89 792.928 L 1868.62 792.706 C 1859.85 792.641 1842.58 790.411 1835.05 793.02 C 1835.06 794.206 1835.12 795.382 1835.26 796.561 C 1836.75 808.376 1843.6 819.298 1852.87 826.583 C 1870.62 840.532 1902.35 844.521 1923.16 835.886 C 1932.33 832.08 1942.21 824.064 1952.03 822.909 C 1961.27 830.284 1969.55 841.111 1977.55 849.937 C 1977.46 850.379 1977.35 850.82 1977.23 851.254 C 1975.77 856.368 1968.02 860.401 1963.63 862.842 C 1930.23 881.449 1894.48 889.16 1856.87 878.407 C 1827.99 870.151 1807.38 854.607 1792.81 828.361 C 1777.42 800.661 1777.72 765.932 1786.24 736.177 C 1787.98 750.767 1786.53 764.692 1786.75 779.273 C 1787.18 807.634 1796.6 836.528 1819.59 854.608 C 1845.01 874.601 1879.25 880.104 1910.71 876.175 C 1933.33 873.35 1953.2 863.533 1972.08 851.205 C 1964.55 843.368 1956.75 835.676 1950.16 827.017 C 1927.95 841.131 1903.52 849.225 1877.18 843.435 C 1861.67 840.028 1846.84 831.35 1838.17 817.8 C 1835.25 813.243 1828.18 798.871 1829.17 793.863 C 1829.7 791.142 1831.65 789.098 1833.82 787.559 C 1842.07 786.012 1851.78 786.992 1860.2 787.011 L 1909.58 787.109 C 1930 787.139 1954.01 785.182 1973.85 787.28 C 1975.72 788.666 1976.68 790.318 1977.85 792.266 z"/>
<path transform="translate(0,0)" fill="rgb(180,180,184)" d="M 1915.11 674.171 C 1939.98 682.89 1958.96 697.763 1970.61 721.844 C 1974.85 730.544 1977.65 739.876 1978.9 749.474 C 1976.96 750.058 1976.53 750.472 1974.6 749.698 C 1969.64 741.386 1968.35 730.085 1964.59 721.074 C 1956.37 701.386 1935.75 687.009 1916.71 679.202 L 1915.11 674.171 z"/>
<path transform="translate(0,0)" fill="rgb(210,210,214)" d="M 1862.25 670.478 C 1880.93 667.773 1896.95 668.992 1915.11 674.171 L 1916.71 679.202 C 1910.32 678.039 1904.34 675.455 1897.84 674.535 C 1885.79 672.831 1873.74 675.126 1862.25 670.478 z"/>
<path transform="translate(0,0)" fill="rgb(180,180,184)" d="M 1832.77 750.534 L 1829.62 750.529 L 1828.67 748.633 C 1829.3 737.861 1837.01 726.372 1844.52 718.98 C 1856.99 706.716 1869.9 703.755 1887 703.878 C 1884.87 705.53 1882.91 706.77 1880.45 707.863 C 1881.61 709.367 1882.43 709.3 1884.23 709.793 C 1869.9 710.091 1857.17 712.692 1846.88 723.466 C 1839.09 731.624 1837.4 740.852 1832.77 750.534 z"/>
<path transform="translate(0,0)" fill="rgb(210,210,214)" d="M 1887 703.878 C 1898.99 703.387 1912.03 709.519 1920.7 717.574 C 1927.81 724.175 1934.63 734.806 1934.93 744.727 C 1935.03 748.027 1933.13 751.045 1932.41 754.175 C 1932.45 753.78 1932.48 753.383 1932.48 752.986 C 1932.63 742.832 1926.78 730.587 1919.78 723.426 C 1909.85 713.275 1898.11 709.974 1884.23 709.793 C 1882.43 709.3 1881.61 709.367 1880.45 707.863 C 1882.91 706.77 1884.87 705.53 1887 703.878 z"/>
<path transform="translate(0,0)" fill="rgb(250,250,249)" d="M 1509.72 674.522 C 1524.52 673.337 1539.79 674.077 1554.65 674.261 C 1557.15 674.728 1557.81 674.604 1559.48 676.666 C 1558.01 694.465 1559.82 713.654 1559.82 731.649 C 1559.8 780.374 1560.59 829.246 1558.87 877.94 C 1547.23 877.733 1536.18 877.872 1524.56 878.672 C 1520.77 878.933 1516.8 879.432 1513.78 876.608 C 1508.56 871.724 1510.06 853.707 1509.97 846.797 L 1509.79 847.192 C 1502.71 862.277 1488.37 872.827 1472.93 878.369 C 1453.48 885.349 1426.75 884.654 1408.04 875.717 C 1392.29 868.197 1378.44 855.365 1372.67 838.624 C 1370 830.902 1368.77 822.571 1368.28 814.438 C 1367.6 803.093 1366.65 679.902 1368.75 675.904 C 1369.14 675.169 1372 674.526 1372.89 674.222 L 1418.14 674.141 C 1420.83 717.929 1417.54 762.305 1418.98 806.2 C 1422.11 817.652 1425.69 826.327 1436.65 832.502 C 1445.66 837.578 1455.88 838.986 1466.05 839.365 C 1477.2 837.184 1488.17 833.768 1496.58 825.776 C 1501.63 820.979 1505.09 815.435 1506.6 808.578 C 1510.4 791.304 1508.06 751.908 1508.06 732.246 C 1508.06 712.947 1509.13 693.796 1509.72 674.522 z"/>
<path transform="translate(0,0)" fill="rgb(180,180,184)" d="M 1554.65 674.261 C 1557.15 674.728 1557.81 674.604 1559.48 676.666 C 1558.01 694.465 1559.82 713.654 1559.82 731.649 C 1559.8 780.374 1560.59 829.246 1558.87 877.94 C 1547.23 877.733 1536.18 877.872 1524.56 878.672 C 1520.77 878.933 1516.8 879.432 1513.78 876.608 C 1508.56 871.724 1510.06 853.707 1509.97 846.797 L 1509.79 847.192 C 1502.71 862.277 1488.37 872.827 1472.93 878.369 C 1453.48 885.349 1426.75 884.654 1408.04 875.717 C 1392.29 868.197 1378.44 855.365 1372.67 838.624 C 1370 830.902 1368.77 822.571 1368.28 814.438 C 1367.6 803.093 1366.65 679.902 1368.75 675.904 C 1369.14 675.169 1372 674.526 1372.89 674.222 C 1373.97 706.292 1373.32 738.434 1373.14 770.517 C 1373.03 788.732 1371.13 809.125 1374.92 826.979 C 1377.5 839.125 1382.79 850.808 1391.94 859.405 C 1406.05 872.651 1426.3 877.804 1445.22 877.145 C 1464.85 876.461 1482.26 871.621 1495.84 856.903 C 1499.93 852.472 1503.37 847.412 1509.7 846.33 C 1511.94 847.139 1512.87 847.422 1513.89 849.756 C 1516.34 855.324 1514.82 864.949 1514.82 871.08 C 1527.54 871.567 1540.27 871.176 1552.99 870.937 C 1553.87 824.628 1554.2 778.311 1553.97 731.995 C 1554.02 713.159 1551.42 692.76 1554.65 674.261 z"/>
<path transform="translate(0,0)" fill="rgb(180,180,184)" d="M 1466.05 839.365 C 1460.8 840.484 1454.13 841.156 1448.72 841.827 C 1443.07 842.527 1432.96 836.371 1428.56 832.871 C 1422.64 828.169 1416.78 821.805 1416.07 813.947 C 1415.74 810.314 1416.8 808.888 1418.98 806.2 C 1422.11 817.652 1425.69 826.327 1436.65 832.502 C 1445.66 837.578 1455.88 838.986 1466.05 839.365 z"/>
<path transform="translate(0,0)" fill="rgb(250,250,249)" d="M 1686.26 344.071 C 1707.65 342.909 1729.57 343.183 1750.96 344.27 C 1750.64 367.963 1751.27 391.664 1750.83 415.359 C 1750.86 424.891 1749.2 442.359 1756.24 449.563 C 1766.3 459.867 1812.95 456.58 1827.95 456.475 C 1841.65 456.38 1870.45 459.419 1880.46 449.032 C 1888.5 440.687 1885.34 417.979 1885.04 407.161 C 1904.77 411.367 1923.75 420.442 1943.77 422.862 C 1942.66 447.472 1945.63 480.992 1925.66 499.182 C 1921.62 502.861 1916.86 505.713 1912.23 508.577 C 1899.91 512.096 1887.55 513.952 1874.72 513.965 C 1852.29 515.323 1829.28 514.138 1806.77 514.038 C 1782.8 513.932 1756.97 515.717 1733.3 512.005 C 1723.94 510.537 1716.17 508.099 1708.33 502.759 C 1706.03 501.144 1703.64 499.314 1701.61 497.37 C 1692.41 488.551 1687.08 471.178 1686.84 458.827 C 1683.92 449.183 1686.41 362.882 1686.26 344.071 z"/>
<path transform="translate(0,0)" fill="rgb(180,180,184)" d="M 1885.04 407.161 C 1904.77 411.367 1923.75 420.442 1943.77 422.862 C 1942.66 447.472 1945.63 480.992 1925.66 499.182 C 1921.62 502.861 1916.86 505.713 1912.23 508.577 L 1911.28 504.136 C 1915.44 502.702 1919.3 499.244 1922.45 496.226 C 1940.11 479.268 1937.38 449.249 1937.84 426.814 C 1922.1 423.748 1906.09 418.259 1890.65 413.853 C 1890.07 425.165 1891.37 437.638 1887.43 448.4 C 1886.72 449.133 1886 449.858 1885.28 450.574 C 1880.75 455.058 1876.08 457.795 1869.89 459.539 C 1852.13 464.546 1813.56 462.296 1793.97 462.144 C 1780.89 462.042 1761.44 462.112 1751.64 451.774 C 1745.35 445.138 1746.06 434.717 1746.3 426.279 C 1746.93 431.815 1747.5 437.616 1748.83 443.028 C 1749.44 445.512 1750.21 448.166 1752.52 449.568 C 1753.18 446.212 1750.35 441.943 1749.6 438.52 C 1748.06 431.552 1748.69 422.103 1750.83 415.359 C 1750.86 424.891 1749.2 442.359 1756.24 449.563 C 1766.3 459.867 1812.95 456.58 1827.95 456.475 C 1841.65 456.38 1870.45 459.419 1880.46 449.032 C 1888.5 440.687 1885.34 417.979 1885.04 407.161 z"/>
<path transform="translate(0,0)" fill="rgb(180,180,184)" d="M 1686.84 458.827 C 1688.01 461.379 1688.99 465.914 1690.92 467.655 C 1691.87 466.271 1691.48 463.959 1691.43 462.325 C 1694.33 473.282 1696.57 485.677 1704.41 494.304 C 1707.04 497.198 1709.82 498.543 1708.33 502.759 C 1706.03 501.144 1703.64 499.314 1701.61 497.37 C 1692.41 488.551 1687.08 471.178 1686.84 458.827 z"/>
<path transform="translate(0,0)" fill="rgb(210,210,214)" d="M 1874.72 513.965 C 1884.8 507.63 1899.8 506.316 1911.28 504.136 L 1912.23 508.577 C 1899.91 512.096 1887.55 513.952 1874.72 513.965 z"/>
<path transform="translate(0,0)" fill="rgb(250,250,249)" d="M 1334.48 13.9338 C 1356.82 11.7735 1380.56 13.0312 1403.03 13.3648 L 1403.28 178.728 C 1403.28 195.197 1405.61 341.541 1400.41 346.659 C 1395.43 351.552 1351.55 348.949 1342.66 348.814 C 1339.99 348.69 1337.1 348.93 1334.83 347.359 C 1332.39 340.545 1334.27 288.507 1334.28 277.413 L 1334.35 117.816 C 1334.4 83.3054 1332.82 48.3826 1334.48 13.9338 z"/>
<path transform="translate(0,0)" fill="rgb(180,180,184)" d="M 1334.48 13.9338 C 1356.82 11.7735 1380.56 13.0312 1403.03 13.3648 L 1403.28 178.728 C 1401.91 176.692 1400.72 174.599 1400.4 172.133 C 1398.71 159.197 1399.79 144.773 1399.73 131.669 C 1399.57 94.1965 1401.33 56.787 1399.74 19.3588 C 1379.58 18.9091 1359.2 20.014 1339.11 19.094 L 1339.07 238.008 L 1339.09 306.158 C 1339.09 317.838 1338.29 330.152 1339.46 341.758 C 1339.75 344.669 1340.69 346.635 1342.66 348.814 C 1339.99 348.69 1337.1 348.93 1334.83 347.359 C 1332.39 340.545 1334.27 288.507 1334.28 277.413 L 1334.35 117.816 C 1334.4 83.3054 1332.82 48.3826 1334.48 13.9338 z"/>
<path transform="translate(0,0)" fill="rgb(250,250,249)" d="M 1437.81 285.832 C 1450.19 288.726 1462.02 297.18 1473.33 302.966 C 1482.13 307.466 1491.19 311.454 1500.05 315.823 C 1468.93 380.537 1435.5 424.255 1374.31 463.085 C 1372.58 462.337 1371.34 461.017 1369.98 459.756 C 1363.85 463.458 1357.79 467.159 1352.21 471.672 C 1349.51 473.859 1347.67 476.765 1344.74 478.628 L 1345.07 480.114 C 1328.25 490.37 1289 509.674 1270.37 513.707 C 1261.26 516.702 1250.77 518.647 1241.24 519.589 C 1238.19 514.057 1211.75 461.266 1211.64 459.456 C 1216.22 456.162 1224.83 455.283 1230.37 453.943 C 1241.44 450.161 1253.02 447.622 1263.92 443.393 C 1315.24 423.471 1374.73 386.65 1407.33 341.82 C 1414.57 329.092 1422.18 316.586 1429.37 303.818 C 1432.11 297.845 1434.63 291.579 1437.81 285.832 z"/>
<path transform="translate(0,0)" fill="rgb(180,180,184)" d="M 1437.81 285.832 C 1450.19 288.726 1462.02 297.18 1473.33 302.966 C 1482.13 307.466 1491.19 311.454 1500.05 315.823 C 1468.93 380.537 1435.5 424.255 1374.31 463.085 C 1372.58 462.337 1371.34 461.017 1369.98 459.756 C 1426.79 425.832 1465.42 376.585 1493.43 317.476 C 1475.76 310.947 1456.81 301.346 1440.7 291.567 C 1438.7 295.452 1436.95 299.465 1435.16 303.447 L 1429.37 303.818 C 1432.11 297.845 1434.63 291.579 1437.81 285.832 z"/>
<path transform="translate(0,0)" fill="rgb(180,180,184)" d="M 1230.37 453.943 C 1228.42 456.645 1218.11 459.493 1218.02 460.316 L 1218.7 460.176 C 1221.03 459.699 1223.16 459.584 1225.54 459.633 L 1217.79 462.212 C 1225.83 479.691 1234.34 497.962 1244.02 514.565 C 1249.63 513.139 1263.55 508.21 1268.53 510.972 L 1270.37 513.707 C 1261.26 516.702 1250.77 518.647 1241.24 519.589 C 1238.19 514.057 1211.75 461.266 1211.64 459.456 C 1216.22 456.162 1224.83 455.283 1230.37 453.943 z"/>
<path transform="translate(0,0)" fill="rgb(210,210,214)" d="M 1429.37 303.818 L 1435.16 303.447 C 1430.04 313.293 1419.07 335.18 1410.87 341.762 C 1409.54 342.046 1408.67 342.252 1407.33 341.82 C 1414.57 329.092 1422.18 316.586 1429.37 303.818 z"/>
<path transform="translate(0,0)" fill="rgb(250,250,249)" d="M 1660.73 669.673 C 1691.27 663.698 1723.37 673.239 1750.64 686.914 C 1748.74 693.578 1747.37 700.914 1744.12 707.051 C 1741.44 712.983 1740.14 719.451 1736.87 725.075 C 1724.35 720.183 1708.64 716.616 1697.19 711.593 C 1686.82 709.514 1677.27 709.645 1666.76 710.499 C 1659.37 713.565 1653.87 717.201 1647.56 722.098 C 1647.48 726.491 1646.52 732.962 1648.38 736.963 C 1655.47 743.461 1668.99 746.473 1678.22 748.439 L 1702.01 755.475 C 1720 759.434 1741.31 768.689 1751.6 784.857 C 1759.88 797.869 1761.62 814.771 1758.3 829.632 C 1754.46 846.773 1744.67 860.635 1729.81 869.99 C 1703.68 886.436 1670.98 886.434 1641.75 879.628 C 1626.4 876.056 1609.07 868.968 1595.67 860.538 C 1597.39 852.348 1601.78 829.076 1608.58 824.321 C 1610.45 823.011 1612.66 822.913 1614.82 823.39 C 1625.26 825.698 1636.36 832.834 1646.67 836.633 C 1662.24 842.154 1679.68 845.475 1695.84 840.318 C 1704.38 835.618 1707.96 831.049 1711.52 822.188 C 1711.02 819.924 1710.55 817.503 1709.64 815.365 C 1702.17 797.866 1651.68 791.019 1633.95 784.064 C 1621.36 779.127 1608.54 770.922 1603.04 757.996 C 1596.23 741.965 1598.23 720.557 1604.61 704.766 C 1605.41 703.433 1606.23 702.119 1607.08 700.824 C 1620.56 680.411 1637.68 674.379 1660.73 669.673 z"/>
<path transform="translate(0,0)" fill="rgb(180,180,184)" d="M 1662.99 706.269 C 1665.64 707.659 1665.67 707.712 1666.76 710.499 C 1659.37 713.565 1653.87 717.201 1647.56 722.098 C 1647.48 726.491 1646.52 732.962 1648.38 736.963 C 1655.47 743.461 1668.99 746.473 1678.22 748.439 L 1702.01 755.475 C 1720 759.434 1741.31 768.689 1751.6 784.857 C 1759.88 797.869 1761.62 814.771 1758.3 829.632 C 1754.46 846.773 1744.67 860.635 1729.81 869.99 C 1703.68 886.436 1670.98 886.434 1641.75 879.628 C 1626.4 876.056 1609.07 868.968 1595.67 860.538 C 1597.39 852.348 1601.78 829.076 1608.58 824.321 C 1610.45 823.011 1612.66 822.913 1614.82 823.39 C 1625.26 825.698 1636.36 832.834 1646.67 836.633 C 1643.63 836.776 1640.71 836.742 1637.67 836.503 C 1636.84 836.919 1637.22 836.76 1636.53 837.011 C 1627.33 835.457 1620.88 831.105 1613.15 826.317 C 1607.95 836.107 1604.22 846.187 1601.04 856.792 C 1609.69 862.988 1619.7 867.705 1629.82 870.931 C 1657.33 879.709 1695.82 882.263 1722.23 868.386 C 1735.23 861.558 1746.87 849.806 1751.25 835.565 C 1755.74 820.97 1755.24 802.618 1747.98 788.976 C 1737.89 770.007 1715.12 764.503 1696.12 758.726 C 1689.65 758.071 1682.91 754.848 1676.34 753.58 C 1665.89 750.175 1650.3 748.155 1644.27 737.694 C 1640.53 731.202 1642.44 725 1644.3 718.319 C 1650.11 712.622 1655.37 709.153 1662.99 706.269 z"/>
<path transform="translate(0,0)" fill="rgb(180,180,184)" d="M 1604.61 704.766 C 1604.65 704.931 1604.69 705.095 1604.72 705.261 C 1606.57 714.069 1604.59 723.13 1604.06 732 C 1603.15 747.367 1608.62 763.736 1621.8 772.532 C 1642.73 786.497 1709.86 790.767 1715.08 816.492 C 1715.38 817.993 1715.52 819.528 1715.65 821.052 C 1715.64 826.168 1714.21 831.196 1710.47 834.895 C 1705.89 839.433 1702.14 840.336 1695.84 840.318 C 1704.38 835.618 1707.96 831.049 1711.52 822.188 C 1711.02 819.924 1710.55 817.503 1709.64 815.365 C 1702.17 797.866 1651.68 791.019 1633.95 784.064 C 1621.36 779.127 1608.54 770.922 1603.04 757.996 C 1596.23 741.965 1598.23 720.557 1604.61 704.766 z"/>
<path transform="translate(0,0)" fill="rgb(210,210,214)" d="M 1660.73 669.673 C 1691.27 663.698 1723.37 673.239 1750.64 686.914 C 1748.74 693.578 1747.37 700.914 1744.12 707.051 C 1743.86 704.044 1743.45 701.754 1742.18 699.003 L 1744.59 692.183 C 1743.42 686.139 1736.45 684.167 1731.19 682.4 C 1722.53 679.487 1713.68 676.986 1704.63 675.613 C 1694.02 674.002 1668.52 675.896 1660.73 669.673 z"/>
<path transform="translate(0,0)" fill="rgb(180,180,184)" d="M 1742.18 699.003 C 1743.45 701.754 1743.86 704.044 1744.12 707.051 C 1741.44 712.983 1740.14 719.451 1736.87 725.075 C 1724.35 720.183 1708.64 716.616 1697.19 711.593 L 1698.34 710.376 L 1697.85 706.372 C 1709.78 708.728 1723.46 713.101 1733.88 719.387 C 1736.54 712.553 1739.41 705.79 1742.18 699.003 z"/>
<path transform="translate(0,0)" fill="rgb(210,210,214)" d="M 1662.99 706.269 C 1669.26 704.599 1691.65 703.746 1697.85 706.372 L 1698.34 710.376 L 1697.19 711.593 C 1686.82 709.514 1677.27 709.645 1666.76 710.499 C 1665.67 707.712 1665.64 707.659 1662.99 706.269 z"/>
<path transform="translate(0,0)" fill="rgb(250,250,249)" d="M 1258.68 97.9654 C 1258.78 95.7311 1258.73 95.0922 1259.93 93.2493 C 1269.17 89.7092 1284.92 93.6455 1294.73 94.3416 C 1302.83 94.6407 1310.94 95.0189 1319.05 94.9453 C 1318.84 158.821 1313.68 223.32 1298.94 285.621 C 1297.27 292.678 1295.18 307.259 1289.98 312.386 C 1288.65 313.7 1287.75 313.835 1285.97 313.726 C 1280.92 313.417 1274.6 310.454 1270.19 308.075 L 1248.85 298.083 C 1242.9 295.861 1234.86 292.165 1230.6 287.398 C 1230.17 283.138 1243.32 235.723 1245.03 225.775 C 1252.33 183.217 1253.42 140.652 1258.68 97.9654 z"/>
<path transform="translate(0,0)" fill="rgb(180,180,184)" d="M 1258.68 97.9654 C 1258.78 95.7311 1258.73 95.0922 1259.93 93.2493 C 1269.17 89.7092 1284.92 93.6455 1294.73 94.3416 C 1302.83 94.6407 1310.94 95.0189 1319.05 94.9453 C 1318.84 158.821 1313.68 223.32 1298.94 285.621 C 1297.27 292.678 1295.18 307.259 1289.98 312.386 C 1288.65 313.7 1287.75 313.835 1285.97 313.726 C 1280.92 313.417 1274.6 310.454 1270.19 308.075 L 1248.85 298.083 C 1242.9 295.861 1234.86 292.165 1230.6 287.398 C 1230.17 283.138 1243.32 235.723 1245.03 225.775 C 1252.33 183.217 1253.42 140.652 1258.68 97.9654 C 1259.26 107.744 1260.44 117.631 1260.36 127.422 C 1259.9 180.228 1248.47 234.324 1236.2 285.407 C 1240.84 288.244 1245.46 291.176 1250.18 293.872 C 1258.28 297.285 1266.98 300.327 1274.73 304.453 C 1278.62 306.181 1282.38 308.059 1286.15 310.04 C 1293.78 288.631 1298.19 265.477 1301.85 243.09 C 1304.24 228.47 1307.34 213.733 1308.91 199.016 C 1312.41 166.45 1312.91 132.73 1314.04 99.9949 L 1303.44 98.1334 C 1288.55 98.2177 1273.57 98.4942 1258.68 97.9654 z"/>
<path transform="translate(0,0)" fill="rgb(250,250,249)" d="M 1463.42 274.843 C 1461.03 275.192 1458.49 275.875 1456.27 274.663 C 1446.55 255.916 1438.37 217.855 1432.83 196.518 C 1424.73 165.393 1416.04 134.213 1408.98 102.85 C 1411.91 100.732 1427.26 99.1802 1431.79 98.0583 C 1443.09 95.2586 1459.4 86.9186 1470.22 86.6587 C 1478.75 106.288 1520.34 240.83 1518.4 258.035 C 1516.64 260.62 1515.26 260.835 1512.43 262.046 C 1503.51 261.363 1473.57 271.946 1463.42 274.843 z"/>
<path transform="translate(0,0)" fill="rgb(180,180,184)" d="M 1463.42 274.843 C 1461.03 275.192 1458.49 275.875 1456.27 274.663 C 1446.55 255.916 1438.37 217.855 1432.83 196.518 C 1424.73 165.393 1416.04 134.213 1408.98 102.85 C 1411.91 100.732 1427.26 99.1802 1431.79 98.0583 C 1443.09 95.2586 1459.4 86.9186 1470.22 86.6587 C 1478.75 106.288 1520.34 240.83 1518.4 258.035 C 1516.64 260.62 1515.26 260.835 1512.43 262.046 L 1511.19 258.062 C 1511.9 257.421 1513.47 256.424 1513.54 255.487 C 1514.08 247.799 1510.44 236.888 1508.55 229.285 C 1501.38 200.343 1492.38 171.486 1483.16 143.133 C 1477.82 126.685 1470.04 107.797 1467.23 90.9897 C 1449.17 98.559 1433.96 103.983 1414.18 103.679 C 1419.68 129.612 1450.58 261.478 1463.42 274.843 z"/>
<path transform="translate(0,0)" fill="rgb(250,250,249)" d="M 1968.55 328.412 C 1970.72 327.76 1972.59 326.613 1974.74 327.692 C 1982.4 331.543 2038.58 442.052 2045.53 454.665 C 2031.84 463.552 2003.54 483.539 1988.69 488.08 C 1970.75 451.652 1951.21 415.038 1930.27 380.217 C 1926.46 373.882 1912.12 358.194 1912.72 351.658 C 1915.95 349.185 1920.14 348.408 1924 347.357 C 1931.55 344.442 1939.23 341.687 1946.42 337.945 C 1953.84 334.875 1961.22 331.697 1968.55 328.412 z"/>
<path transform="translate(0,0)" fill="rgb(180,180,184)" d="M 1968.55 328.412 C 1970.72 327.76 1972.59 326.613 1974.74 327.692 C 1982.4 331.543 2038.58 442.052 2045.53 454.665 C 2031.84 463.552 2003.54 483.539 1988.69 488.08 C 1970.75 451.652 1951.21 415.038 1930.27 380.217 C 1926.46 373.882 1912.12 358.194 1912.72 351.658 C 1915.95 349.185 1920.14 348.408 1924 347.357 C 1923.4 351.102 1920.9 352.233 1919.88 355.655 C 1946.18 396.818 1966.33 440.802 1991.23 482.623 C 2007.43 473.201 2023.75 463.749 2038.88 452.656 C 2034.41 442.441 2028.21 432.519 2022.97 422.638 C 2013.67 405.102 2004.65 387.312 1994.85 370.049 C 1988.47 358.801 1979.43 346.546 1975.41 334.321 C 1975.25 333.524 1975.07 332.574 1974.65 331.869 C 1973.18 329.373 1971.09 329.179 1968.55 328.412 z"/>
<path transform="translate(0,0)" fill="rgb(210,210,214)" d="M 1968.55 328.412 C 1971.09 329.179 1973.18 329.373 1974.65 331.869 C 1975.07 332.574 1975.25 333.524 1975.41 334.321 C 1970.94 332.417 1956.18 339.404 1946.42 337.945 C 1953.84 334.875 1961.22 331.697 1968.55 328.412 z"/>
<path transform="translate(0,0)" fill="rgb(250,250,249)" d="M 1604.08 358.446 C 1604.2 355.183 1604.99 351.131 1605.79 347.956 C 1606.33 345.823 1607.65 343.985 1609.59 342.928 C 1617.1 338.853 1631.66 345.014 1639.53 347.12 C 1650.47 349.158 1661.25 351.703 1672.06 354.334 C 1659.76 406.552 1656.12 437.8 1624.18 483.834 C 1621.36 487.894 1617.44 496.537 1613.36 498.899 C 1611.54 499.952 1609.99 499.306 1608.16 498.645 C 1603.31 496.888 1598.26 493.639 1593.87 490.9 C 1586.6 488.498 1579.26 482.7 1572.86 478.484 C 1568.23 475.515 1561.73 472.898 1558.37 468.516 C 1557.44 462.974 1574.21 440.015 1577.66 433.243 C 1585.54 417.755 1593.09 399.948 1597.92 383.226 C 1600.29 375.042 1601.68 366.634 1604.08 358.446 z"/>
<path transform="translate(0,0)" fill="rgb(180,180,184)" d="M 1639.53 347.12 C 1650.47 349.158 1661.25 351.703 1672.06 354.334 C 1659.76 406.552 1656.12 437.8 1624.18 483.834 C 1621.36 487.894 1617.44 496.537 1613.36 498.899 C 1611.54 499.952 1609.99 499.306 1608.16 498.645 C 1603.31 496.888 1598.26 493.639 1593.87 490.9 L 1598.37 487.952 C 1602.29 490.158 1605.83 492.375 1609.33 495.236 C 1641.87 461.602 1658.84 402.8 1665.94 357.572 C 1660.05 356.21 1654.15 354.947 1648.31 353.383 C 1648.99 353.187 1649.53 353.034 1650.25 353.021 C 1655.32 352.932 1662.26 354.092 1666.08 357.482 C 1670.45 369.742 1649.92 426.867 1645.26 439.899 L 1645.85 439.779 C 1656.11 420.323 1660.79 398.671 1665.53 377.343 C 1666.83 371.515 1668.82 366.079 1668.95 360.046 C 1669.16 349.844 1645.67 353.48 1639.53 347.12 z"/>
<path transform="translate(0,0)" fill="rgb(180,180,184)" d="M 1572.86 478.484 C 1568.23 475.515 1561.73 472.898 1558.37 468.516 C 1557.44 462.974 1574.21 440.015 1577.66 433.243 C 1585.54 417.755 1593.09 399.948 1597.92 383.226 C 1600.29 375.042 1601.68 366.634 1604.08 358.446 C 1604.74 365.667 1603.07 373.348 1602.05 380.505 C 1603.03 376.337 1603.99 372.161 1604.91 367.98 C 1604.27 387.324 1587.87 422.435 1578.43 439.752 C 1573.38 449.017 1567.03 458.018 1563.52 467.998 C 1567.23 470.098 1570.92 472.314 1574.71 474.262 L 1572.86 478.484 z"/>
<path transform="translate(0,0)" fill="rgb(210,210,214)" d="M 1574.71 474.262 C 1581.13 478.09 1593.25 483.61 1598.37 487.952 L 1593.87 490.9 C 1586.6 488.498 1579.26 482.7 1572.86 478.484 L 1574.71 474.262 z"/>
<path transform="translate(0,0)" fill="rgb(246,42,69)" d="M 210.512 303.979 C 212.896 298.215 218.021 292.777 223.161 289.438 C 231.868 283.781 241.066 282.421 251.159 284.58 C 261.104 285.013 270.184 290.877 276.803 298.138 C 284.456 306.532 286.804 316.158 286.192 327.235 C 285.513 339.537 281.7 352.043 272.213 360.438 C 264.162 367.562 253.037 370.669 242.407 369.901 C 231.592 369.102 221.546 364.008 214.51 355.756 C 206.988 346.862 204.102 334.645 205.078 323.189 C 205.629 316.717 207.414 309.696 210.512 303.979 z"/>
<path transform="translate(0,0)" fill="rgb(251,23,37)" d="M 251.159 284.58 C 261.104 285.013 270.184 290.877 276.803 298.138 C 284.456 306.532 286.804 316.158 286.192 327.235 C 285.513 339.537 281.7 352.043 272.213 360.438 C 264.162 367.562 253.037 370.669 242.407 369.901 C 231.592 369.102 221.546 364.008 214.51 355.756 C 206.988 346.862 204.102 334.645 205.078 323.189 C 205.629 316.717 207.414 309.696 210.512 303.979 C 212.863 320.548 205.226 334.056 216.582 349.813 C 221.998 357.329 230.707 362.055 239.76 363.524 C 248.677 364.971 259.591 364.14 266.981 358.575 C 274.844 352.655 280.299 336.764 281.372 327.351 C 282.807 314.767 274.521 299.523 263.095 293.7 C 259.094 291.661 249.84 290.221 247.204 286.888 C 247.737 286.785 248.002 286.693 248.523 286.719 C 252.723 286.934 268.875 294.67 271.819 297.659 C 281.419 307.404 282.844 319.203 282.731 332.276 L 283.397 332.191 L 283.491 330.446 C 284.594 307.901 280.538 298.119 259.393 288.233 C 256.682 286.966 253.455 287.344 251.435 284.945 C 251.336 284.829 251.251 284.702 251.159 284.58 z"/>
<path transform="translate(0,0)" fill="rgb(246,42,69)" d="M 405.775 585.787 C 402.286 584 398.737 582.435 396.1 579.441 L 396.173 578.049 C 414.175 571.945 434.199 570.435 447.739 555.563 C 451.705 551.207 467.115 525.303 469.081 524.849 C 469.427 524.769 470.483 525.078 470.886 525.144 C 472.583 548.13 480.476 567.719 498.098 582.985 C 502.139 586.486 517.009 594.541 518.474 597.064 C 517.594 599.336 515.543 600.338 513.436 601.275 C 505.224 604.927 496.149 606.07 487.796 609.663 C 475.159 616.204 462.947 628.68 456.767 641.508 C 454.428 646.362 452.452 652.908 448.461 656.58 L 446.773 656.483 C 444.116 650.832 444.886 641.677 443.524 635.347 C 438.787 613.324 424.282 597.46 405.775 585.787 z"/>
<path transform="translate(0,0)" fill="rgb(251,23,37)" d="M 405.775 585.787 C 409.338 585.087 411.516 586.974 414.456 588.922 C 422.805 594.453 429.948 602.779 435.358 611.129 C 436.234 612.482 437.263 615.281 438.812 615.161 C 438.445 608.42 425.972 595.687 420.978 591.23 C 417.107 587.775 413.126 585.155 408.536 582.754 L 408.555 582.048 C 422.566 586.434 434.168 601.621 440.723 614.215 C 445.105 622.632 444.938 633.874 449.711 641.576 C 453.927 639.297 461.966 613.967 483.317 608.424 L 478.55 610.815 L 478.805 611.142 C 481.476 610.248 484.154 609.375 486.839 608.523 L 487.796 609.663 C 475.159 616.204 462.947 628.68 456.767 641.508 C 454.428 646.362 452.452 652.908 448.461 656.58 L 446.773 656.483 C 444.116 650.832 444.886 641.677 443.524 635.347 C 438.787 613.324 424.282 597.46 405.775 585.787 z"/>
<path transform="translate(0,0)" fill="rgb(250,250,249)" d="M 1803.05 318.144 C 1816.9 328.396 1829.2 342.719 1841.34 354.945 C 1850.51 364.185 1860.98 373.401 1869.13 383.536 C 1864.21 392.856 1841.35 416.739 1831.82 420.308 C 1828.69 419.912 1826.84 418.064 1824.55 415.972 C 1814.44 406.707 1805.51 394.919 1796.47 384.558 C 1788.37 375.28 1779.6 366.52 1772.04 356.799 C 1770.51 354.836 1767.08 351.135 1767.46 348.594 C 1767.69 347.041 1769.03 345.378 1769.89 344.09 C 1771.44 342.481 1773.17 341.022 1774.83 339.526 C 1783.59 331.421 1793.08 324.646 1803.05 318.144 z"/>
<path transform="translate(0,0)" fill="rgb(180,180,184)" d="M 1803.05 318.144 C 1816.9 328.396 1829.2 342.719 1841.34 354.945 C 1850.51 364.185 1860.98 373.401 1869.13 383.536 C 1864.21 392.856 1841.35 416.739 1831.82 420.308 C 1828.69 419.912 1826.84 418.064 1824.55 415.972 C 1814.44 406.707 1805.51 394.919 1796.47 384.558 C 1788.37 375.28 1779.6 366.52 1772.04 356.799 C 1770.51 354.836 1767.08 351.135 1767.46 348.594 C 1767.69 347.041 1769.03 345.378 1769.89 344.09 C 1770.78 347.369 1772.03 350.104 1774.02 352.875 C 1779.13 359.973 1785.71 366.103 1791.54 372.605 C 1804.73 387.32 1818.42 402.335 1830.22 418.183 C 1841.2 406.851 1853.01 396.325 1863.99 384.947 C 1854.41 374.027 1843.29 363.941 1833.02 353.635 C 1822.96 343.541 1813.04 332.114 1801.79 323.366 C 1797.29 327.355 1792.79 331.646 1787.93 335.178 C 1783.82 338.163 1780 340.314 1774.83 339.526 C 1783.59 331.421 1793.08 324.646 1803.05 318.144 z"/>
<path transform="translate(0,0)" fill="rgb(251,23,37)" d="M 445.897 250.388 C 449.325 246.881 456.128 244.104 460.925 242.921 C 469.145 240.895 475.293 241.862 482.484 246.097 C 491.384 250.018 498.032 255.541 501.663 264.868 C 505.5 274.725 503.67 286.246 499.378 295.673 C 495.288 304.656 488.547 311.581 479.176 315.066 C 470.634 318.243 460.901 318.567 452.537 314.674 C 444.78 311.064 437.485 303.083 434.372 295.102 C 430.932 288.26 430.416 281.74 431.633 274.237 C 433.149 264.886 438.193 255.998 445.897 250.388 z"/>
<path transform="translate(0,0)" fill="rgb(246,42,69)" d="M 472.668 248.788 C 488.812 251.718 499.974 266.59 498.277 282.91 C 496.579 299.23 482.596 311.487 466.194 311.032 C 449.793 310.577 436.511 297.563 435.721 281.174 C 435.287 272.158 438.756 263.392 445.242 257.115 C 452.508 250.083 462.718 246.983 472.668 248.788 z"/>
<path transform="translate(0,0)" fill="rgb(241,25,50)" d="M 445.897 250.388 C 445.973 253.142 442.428 256.106 443.685 257.49 L 445.242 257.115 C 438.756 263.392 435.287 272.158 435.721 281.174 L 434.494 279.664 C 433.38 284.252 433.671 290.428 434.372 295.102 C 430.932 288.26 430.416 281.74 431.633 274.237 C 433.149 264.886 438.193 255.998 445.897 250.388 z"/>
<path transform="translate(0,0)" fill="rgb(246,42,69)" d="M 376.604 379.194 C 384.836 378.003 394.172 379.707 401.018 384.463 C 407.857 389.215 412.169 396.668 413.657 404.791 C 415.561 415.181 414.546 427.19 408.255 435.969 C 402.123 444.527 393.347 448.061 383.349 449.728 C 374.452 449.598 366.757 448.063 359.368 442.715 C 351.971 437.36 346.912 429.624 345.634 420.523 C 344.299 411.009 346.208 400.522 352.162 392.843 C 358.046 385.253 367.162 380.35 376.604 379.194 z"/>
<path transform="translate(0,0)" fill="rgb(246,42,69)" d="M 245.278 481.533 C 257.539 479.362 270.02 483.955 277.95 493.555 C 285.88 503.155 288.032 516.279 283.585 527.909 C 279.138 539.54 268.778 547.878 256.466 549.738 C 237.761 552.563 220.261 539.826 217.199 521.159 C 214.137 502.492 226.651 484.832 245.278 481.533 z"/>
<path transform="translate(0,0)" fill="rgb(246,42,69)" d="M 581.532 430.797 C 583.737 426.223 585.763 420.476 589.684 417.162 L 591.653 417.292 C 594.088 420.177 593.57 425.309 594.04 428.969 C 596.145 445.356 610.271 455.983 623.899 463.083 C 606.858 469.748 593.857 473.295 582.916 489.14 C 581.766 491.553 581.517 494.399 580.229 496.771 C 579.253 498.57 578.644 499.099 576.752 499.681 C 573.484 495.743 574.503 486.104 572.779 481.118 C 571.347 476.976 567.817 473.984 566.688 469.622 C 562.444 466.354 558.851 462.241 554.464 458.93 C 552.165 457.194 548.388 454.735 547.974 451.776 C 551.501 446.938 564.993 444.86 570.638 441.417 C 574.943 438.791 577.163 433.481 581.532 430.797 z"/>
<path transform="translate(0,0)" fill="rgb(251,23,37)" d="M 581.532 430.797 C 583.737 426.223 585.763 420.476 589.684 417.162 L 591.653 417.292 C 594.088 420.177 593.57 425.309 594.04 428.969 C 596.145 445.356 610.271 455.983 623.899 463.083 C 606.858 469.748 593.857 473.295 582.916 489.14 C 581.766 491.553 581.517 494.399 580.229 496.771 C 579.253 498.57 578.644 499.099 576.752 499.681 C 573.484 495.743 574.503 486.104 572.779 481.118 C 571.347 476.976 567.817 473.984 566.688 469.622 C 571.173 471.572 572.524 477.478 575.983 480.956 L 574.541 477.616 C 577.199 480.049 578.267 482.89 579.609 486.173 C 581.592 483.925 582.987 480.98 584.97 478.61 C 591.857 470.376 600.56 466.217 610.139 461.923 C 604.823 456.132 598.001 450.067 593.691 443.548 C 591.471 440.19 590.468 436.192 588.242 432.738 L 585.264 432.437 C 585.278 431.088 585.42 429.746 585.536 428.403 C 584.408 429.65 583.607 430.186 581.984 430.67 C 581.834 430.715 581.683 430.755 581.532 430.797 z"/>
<path transform="translate(0,0)" fill="rgb(180,180,184)" fill-opacity="0.988235" d="M 1268.53 876.747 C 1267.01 839.046 1267.99 800.953 1268.02 763.211 C 1268.04 734.464 1266.89 705.284 1267.99 676.603 L 1272.4 677.824 C 1273.89 696.863 1273.08 716.382 1273.06 735.492 C 1273.02 780.543 1271.7 825.968 1273.48 870.972 C 1287.28 871.195 1301.12 871.207 1314.9 871.753 L 1315.16 860.225 C 1317.27 848.465 1316.12 834.41 1316.08 822.353 C 1316.01 795.856 1315.21 769.119 1316.68 742.659 C 1318.34 750.784 1319.01 759.086 1319.91 767.322 C 1320.82 777.589 1320.18 788.461 1320.16 798.785 C 1320.1 824.831 1319.18 851.171 1320.3 877.184 C 1303.1 877.483 1285.72 877.43 1268.53 876.747 z"/>
<path transform="translate(0,0)" fill="rgb(180,180,184)" fill-opacity="0.988235" d="M 1161.87 313.52 L 1165.57 312.761 C 1163.16 322.307 1165.36 349.256 1165.36 360.697 C 1165.34 411.592 1166.05 462.605 1165.23 513.484 C 1146.99 516.978 1114.16 518.771 1096.1 514.8 L 1095.92 499.799 L 1097.35 503.129 L 1098.39 503.214 L 1098.89 498.558 L 1100.43 494.27 C 1100.77 496.759 1101.28 499.136 1101.87 501.573 C 1101.81 504.262 1101.45 507.065 1102.82 509.487 C 1115.26 511.795 1145.76 510.751 1159.14 509.002 C 1159.13 490.857 1157.91 317.848 1159.86 313.826 L 1161.87 313.52 z"/>
<path transform="translate(0,0)" fill="rgb(210,210,214)" fill-opacity="0.984314" d="M 1345.07 480.114 L 1344.74 478.628 C 1347.67 476.765 1349.51 473.859 1352.21 471.672 C 1357.79 467.159 1363.85 463.458 1369.98 459.756 C 1371.34 461.017 1372.58 462.337 1374.31 463.085 C 1365.98 469.573 1354.87 476.027 1345.07 480.114 z"/>
<path transform="translate(0,0)" fill="rgb(180,180,184)" fill-opacity="0.984314" d="M 1051.36 408.806 C 1054.89 404.149 1057.86 398.825 1060.97 393.867 L 1064.1 397.913 C 1061.59 402.37 1058.98 406.26 1055.69 410.177 L 1051.36 408.806 z"/>
</svg>