<svg xmlns="http://www.w3.org/2000/svg" width="1400" height="760" viewBox="0 0 1400 760" role="img" aria-labelledby="title desc">
  <title id="title">ContentGuard AI 技术架构</title>
  <desc id="desc">浏览器、Next.js、FastAPI、PostgreSQL、Redis、Celery、对象存储和兼容 OpenAI API 服务之间的数据流。</desc>
  <defs>
    <marker id="arrow" viewBox="0 0 10 10" refX="9" refY="5" markerWidth="8" markerHeight="8" orient="auto-start-reverse">
      <path d="M 0 0 L 10 5 L 0 10 z" fill="#596273"/>
    </marker>
    <marker id="arrow-accent" viewBox="0 0 10 10" refX="9" refY="5" markerWidth="8" markerHeight="8" orient="auto-start-reverse">
      <path d="M 0 0 L 10 5 L 0 10 z" fill="#6366f1"/>
    </marker>
    <filter id="shadow" x="-20%" y="-20%" width="140%" height="140%">
      <feDropShadow dx="0" dy="8" stdDeviation="10" flood-color="#111827" flood-opacity=".09"/>
    </filter>
  </defs>

  <rect width="1400" height="760" rx="24" fill="#f7f8fb"/>
  <text x="72" y="82" fill="#101828" font-family="Arial, Microsoft YaHei, sans-serif" font-size="30" font-weight="700">ContentGuard AI 技术架构</text>
  <text x="72" y="119" fill="#667085" font-family="Arial, Microsoft YaHei, sans-serif" font-size="16">围绕内容交付流程组织的单体 API、异步媒体处理与实时进度反馈</text>

  <rect x="72" y="185" width="230" height="150" rx="18" fill="#ffffff" stroke="#d9dce5" stroke-width="2" filter="url(#shadow)"/>
  <circle cx="132" cy="245" r="25" fill="#eef0ff"/>
  <path d="M121 244h22M132 233v24" stroke="#6366f1" stroke-width="4" stroke-linecap="round"/>
  <text x="175" y="242" fill="#101828" font-family="Arial, Microsoft YaHei, sans-serif" font-size="20" font-weight="700">浏览器</text>
  <text x="175" y="272" fill="#667085" font-family="Arial, Microsoft YaHei, sans-serif" font-size="14">角色化工作台</text>
  <text x="175" y="296" fill="#667085" font-family="Arial, Microsoft YaHei, sans-serif" font-size="14">上传、审核、反馈</text>

  <rect x="384" y="185" width="290" height="150" rx="18" fill="#ffffff" stroke="#cfd2ff" stroke-width="2" filter="url(#shadow)"/>
  <rect x="420" y="220" width="50" height="50" rx="13" fill="#6366f1"/>
  <text x="445" y="253" text-anchor="middle" fill="#ffffff" font-family="Arial, Microsoft YaHei, sans-serif" font-size="23" font-weight="800">N</text>
  <text x="497" y="239" fill="#101828" font-family="Arial, Microsoft YaHei, sans-serif" font-size="20" font-weight="700">Next.js 前端</text>
  <text x="497" y="269" fill="#667085" font-family="Arial, Microsoft YaHei, sans-serif" font-size="14">App Router · 权限视图</text>
  <text x="497" y="296" fill="#667085" font-family="Arial, Microsoft YaHei, sans-serif" font-size="14">SSE 进度订阅</text>

  <rect x="762" y="154" width="330" height="212" rx="18" fill="#ffffff" stroke="#cfd2ff" stroke-width="2" filter="url(#shadow)"/>
  <rect x="801" y="191" width="50" height="50" rx="13" fill="#0f9f6e"/>
  <text x="826" y="224" text-anchor="middle" fill="#ffffff" font-family="Arial, Microsoft YaHei, sans-serif" font-size="22" font-weight="800">F</text>
  <text x="877" y="210" fill="#101828" font-family="Arial, Microsoft YaHei, sans-serif" font-size="20" font-weight="700">FastAPI API</text>
  <text x="877" y="240" fill="#667085" font-family="Arial, Microsoft YaHei, sans-serif" font-size="14">认证与租户边界</text>
  <text x="877" y="268" fill="#667085" font-family="Arial, Microsoft YaHei, sans-serif" font-size="14">Project / Brief / Task</text>
  <text x="877" y="296" fill="#667085" font-family="Arial, Microsoft YaHei, sans-serif" font-size="14">审核、申诉、导出 API</text>
  <rect x="801" y="318" width="240" height="26" rx="13" fill="#eef0ff"/>
  <text x="921" y="336" text-anchor="middle" fill="#4b4ed4" font-family="Arial, Microsoft YaHei, sans-serif" font-size="12" font-weight="700">结构化审核结果 + SSE</text>

  <rect x="1148" y="154" width="180" height="212" rx="18" fill="#ffffff" stroke="#d9dce5" stroke-width="2" filter="url(#shadow)"/>
  <text x="1183" y="202" fill="#101828" font-family="Arial, Microsoft YaHei, sans-serif" font-size="18" font-weight="700">外部 AI</text>
  <text x="1183" y="231" fill="#667085" font-family="Arial, Microsoft YaHei, sans-serif" font-size="13">兼容 OpenAI API</text>
  <rect x="1183" y="260" width="110" height="8" rx="4" fill="#e4e7ec"/>
  <rect x="1183" y="278" width="85" height="8" rx="4" fill="#e4e7ec"/>
  <rect x="1183" y="296" width="100" height="8" rx="4" fill="#e4e7ec"/>

  <rect x="490" y="478" width="250" height="150" rx="18" fill="#ffffff" stroke="#d9dce5" stroke-width="2" filter="url(#shadow)"/>
  <circle cx="550" cy="538" r="25" fill="#fff5df"/>
  <path d="M538 537h24M550 525v24" stroke="#d58d18" stroke-width="4" stroke-linecap="round"/>
  <text x="590" y="535" fill="#101828" font-family="Arial, Microsoft YaHei, sans-serif" font-size="19" font-weight="700">PostgreSQL</text>
  <text x="590" y="565" fill="#667085" font-family="Arial, Microsoft YaHei, sans-serif" font-size="14">SQLAlchemy 2.0</text>
  <text x="590" y="591" fill="#667085" font-family="Arial, Microsoft YaHei, sans-serif" font-size="14">Alembic migrations</text>

  <rect x="800" y="478" width="250" height="150" rx="18" fill="#ffffff" stroke="#d9dce5" stroke-width="2" filter="url(#shadow)"/>
  <circle cx="860" cy="538" r="25" fill="#e7f8f0"/>
  <path d="M848 538h24M860 526v24" stroke="#0f9f6e" stroke-width="4" stroke-linecap="round"/>
  <text x="900" y="535" fill="#101828" font-family="Arial, Microsoft YaHei, sans-serif" font-size="19" font-weight="700">Redis / Celery</text>
  <text x="900" y="565" fill="#667085" font-family="Arial, Microsoft YaHei, sans-serif" font-size="14">异步媒体处理</text>
  <text x="900" y="591" fill="#667085" font-family="Arial, Microsoft YaHei, sans-serif" font-size="14">审核队列与重试</text>

  <rect x="1110" y="478" width="218" height="150" rx="18" fill="#ffffff" stroke="#d9dce5" stroke-width="2" filter="url(#shadow)"/>
  <text x="1145" y="530" fill="#101828" font-family="Arial, Microsoft YaHei, sans-serif" font-size="18" font-weight="700">文件存储</text>
  <text x="1145" y="560" fill="#667085" font-family="Arial, Microsoft YaHei, sans-serif" font-size="14">TOS 或本地回退</text>
  <text x="1145" y="588" fill="#667085" font-family="Arial, Microsoft YaHei, sans-serif" font-size="14">视频、脚本、导出文件</text>

  <path d="M302 260H384" stroke="#596273" stroke-width="3" marker-end="url(#arrow)"/>
  <path d="M674 260H762" stroke="#6366f1" stroke-width="3" marker-end="url(#arrow-accent)"/>
  <path d="M1092 236H1148" stroke="#596273" stroke-width="3" marker-end="url(#arrow)"/>
  <path d="M900 366V440H615V478" fill="none" stroke="#596273" stroke-width="3" marker-end="url(#arrow)"/>
  <path d="M927 366V440H925V478" fill="none" stroke="#596273" stroke-width="3" marker-end="url(#arrow)"/>
  <path d="M1044 366V430H1218V478" fill="none" stroke="#596273" stroke-width="3" marker-end="url(#arrow)"/>
  <path d="M762 316H710V410H535V260H674" fill="none" stroke="#6366f1" stroke-width="2.5" stroke-dasharray="8 8" marker-end="url(#arrow-accent)"/>
  <text x="420" y="402" fill="#667085" font-family="Arial, Microsoft YaHei, sans-serif" font-size="13">实时进度回传</text>

  <rect x="72" y="690" width="1256" height="1" fill="#d9dce5"/>
  <text x="72" y="722" fill="#667085" font-family="Arial, Microsoft YaHei, sans-serif" font-size="13">当前实现：单体 FastAPI 后端 + Next.js 前端 + Celery/Redis 异步任务 + SSE 进度通知</text>
</svg>
